#!OML:ASF I:\Actors\actors\Patient Classification 1\Patient 1\Session 1\Subject1.ASF
:FULLY-SPECIFIED
:DEGREES
850
root 0.686645 17.5353 9.33276 7.24028 -4.21215 -8.7497
lowerback 2.15494 1.88072 8.83057
upperback -6.30997 3.14236 1.15246
thorax -7.48902 1.05651 -3.97502
lowerneck -14.9464 -3.59888 -2.3726
upperneck 40.4963 -7.04615 5.0108
head 17.8342 -2.54832 1.3881
rclavicle -1.09829e-014 -3.18055e-015
rhumerus 2.53006 74.4061 -60.0883
rradius 115.696
rwrist -6.75186
rhand 34.7054 -24.8091
rfingers 7.12502
rthumb 57.8802 319.363
lclavicle -1.09829e-014 -3.18055e-015
lhumerus -66.0441 -73.2816 117.571
lradius 106.181
lwrist 63.9301
lhand -5.72489 -9.48511
lfingers 7.12502
lthumb 20.0968 19.4955
rfemur -2.63538 23.0522 26.4745
rtibia 3.48811
rfoot -12.9347 -24.4308
rtoes 8.51502
lfemur 6.2755 -34.6796 -12.8766
ltibia -2.88222
lfoot -15.1841 45.0584
ltoes 2.4207
851
root 0.687378 17.5319 9.34082 7.18846 -4.27563 -8.56052
lowerback 2.11166 1.88187 8.59628
upperback -6.29962 3.12264 1.12907
thorax -7.46083 1.06175 -3.86643
lowerneck -15.1196 -3.60523 -2.48281
upperneck 40.549 -7.08697 5.15723
head 17.9301 -2.55691 1.46633
rclavicle 3.34952e-014 1.43125e-014
rhumerus 1.77381 74.4168 -60.9582
rradius 115.252
rwrist -8.24341
rhand 35.6952 -25.5405
rfingers 7.12502
rthumb 58.7412 319.422
lclavicle 3.34952e-014 1.43125e-014
lhumerus -66.619 -73.2291 118.242
lradius 106.159
lwrist 64.038
lhand -5.64462 -9.34031
lfingers 7.12502
lthumb 20.174 19.6322
rfemur -2.50515 22.962 26.2747
rtibia 3.39274
rfoot -12.927 -24.3052
rtoes 8.55248
lfemur 6.46626 -34.767 -13.2666
ltibia -2.90391
lfoot -15.2225 45.1748
ltoes 2.29579
852
root 0.688432 17.5286 9.34864 7.1298 -4.3448 -8.35607
lowerback 2.09546 1.87194 8.38084
upperback -6.29999 3.0909 1.07271
thorax -7.45935 1.0572 -3.80363
lowerneck -15.1681 -3.57607 -2.43371
upperneck 40.438 -7.04541 5.14837
head 17.8719 -2.53478 1.45804
rclavicle 2.43511e-015 1.55052e-014
rhumerus 0.995532 74.4713 -61.8922
rradius 114.853
rwrist -9.69262
rhand 36.5904 -26.5724
rfingers 7.12502
rthumb 59.5138 319.147
lclavicle 2.43511e-015 1.55052e-014
lhumerus -67.3231 -73.2029 118.987
lradius 106.166
lwrist 64.0894
lhand -5.68908 -9.46376
lfingers 7.12502
lthumb 20.1312 19.5132
rfemur -2.36267 22.895 26.0605
rtibia 3.27517
rfoot -12.8692 -24.215
rtoes 8.43226
lfemur 6.65841 -34.8141 -13.6657
ltibia -2.93103
lfoot -15.2499 45.2579
ltoes 2.29715
853
root 0.687622 17.5275 9.34304 7.07971 -4.45159 -8.16826
lowerback 2.2901 1.86891 8.14854
upperback -6.34396 3.09216 1.01406
thorax -7.6252 1.0612 -3.7463
lowerneck -15.1599 -3.59696 -2.47633
upperneck 40.2672 -7.07983 5.21837
head 17.7795 -2.54926 1.4874
rclavicle -2.63141e-014 -1.63003e-014
rhumerus 0.387392 74.594 -62.6613
rradius 114.591
rwrist -11.2604
rhand 37.3105 -27.8076
rfingers 7.12502
rthumb 60.1308 318.55
lclavicle -2.63141e-014 -1.63003e-014
lhumerus -68.098 -73.2083 119.794
lradius 106.167
lwrist 64.022
lhand -5.71667 -9.63171
lfingers 7.12502
lthumb 20.1047 19.3481
rfemur -2.38267 23.0591 25.8358
rtibia 3.3105
rfoot -12.876 -24.2993
rtoes 8.41225
lfemur 6.66312 -34.7685 -13.8788
ltibia -2.88922
lfoot -15.291 45.2778
ltoes 2.44162
854
root 0.682052 17.5297 9.3084 7.09757 -4.67516 -8.07315
lowerback 2.92079 1.90898 7.89824
upperback -6.49223 3.20093 0.976539
thorax -8.15094 1.10173 -3.68714
lowerneck -15.1658 -3.65107 -2.49917
upperneck 40.111 -7.17913 5.29941
head 17.7044 -2.58465 1.5057
rclavicle 2.045e-014 3.97569e-014
rhumerus -0.386983 74.6379 -63.5746
rradius 114.387
rwrist -13.0132
rhand 37.7283 -29.1196
rfingers 7.12502
rthumb 60.4868 317.622
lclavicle 2.045e-014 3.97569e-014
lhumerus -68.9001 -73.2664 120.615
lradius 106.162
lwrist 63.9427
lhand -5.58302 -9.64716
lfingers 7.12502
lthumb 20.2332 19.319
rfemur -2.85993 23.5879 25.6158
rtibia 3.76159
rfoot -13.0104 -24.5746
rtoes 8.74841
lfemur 6.18957 -34.4887 -13.587
ltibia -2.66766
lfoot -15.3329 45.1368
ltoes 2.61205
855
root 0.683386 17.5313 9.33284 7.29689 -4.41746 -8.58902
lowerback 2.40394 1.87872 8.5284
upperback -6.49277 3.1545 1.06348
thorax -7.83813 1.05652 -3.9174
lowerneck -15.3342 -3.7114 -2.43046
upperneck 40.1542 -7.30352 5.29699
head 17.7793 -2.62035 1.46584
rclavicle -2.08972e-014 2.62396e-014
rhumerus -1.41519 74.592 -64.7577
rradius 114.159
rwrist -14.6254
rhand 38.191 -30.3325
rfingers 7.12502
rthumb 60.8794 316.845
lclavicle -2.08972e-014 2.62396e-014
lhumerus -69.6668 -73.316 121.364
lradius 106.182
lwrist 63.9941
lhand -5.42596 -9.53461
lfingers 7.12502
lthumb 20.3841 19.4155
rfemur -2.79203 23.2482 26.2329
rtibia 3.57543
rfoot -12.9724 -24.4392
rtoes 8.73377
lfemur 6.1271 -34.4246 -12.9289
ltibia -2.82016
lfoot -15.0912 44.9675
ltoes 2.16484
856
root 0.684658 17.5318 9.34326 7.39367 -4.3672 -8.79681
lowerback 2.20589 1.86234 8.76909
upperback -6.49885 3.12895 1.10526
thorax -7.72698 1.03553 -3.99595
lowerneck -15.5957 -3.73625 -2.37259
upperneck 40.279 -7.37073 5.28004
head 17.9225 -2.63285 1.43242
rclavicle -2.60905e-015 7.95139e-015
rhumerus -2.43906 74.5486 -65.9665
rradius 113.939
rwrist -15.8274
rhand 38.775 -31.3866
rfingers 7.12502
rthumb 61.3722 316.359
lclavicle -2.60905e-015 7.95139e-015
lhumerus -70.2656 -73.2608 121.908
lradius 106.207
lwrist 64.1519
lhand -5.24961 -9.27381
lfingers 7.12502
lthumb 20.5536 19.6581
rfemur -2.79481 23.1118 26.462
rtibia 3.50611
rfoot -12.9289 -24.3245
rtoes 8.70189
lfemur 6.11715 -34.4243 -12.6824
ltibia -2.89021
lfoot -15.106 44.964
ltoes 2.13856
